<?xml version="1.0" encoding="UTF-8"?>
<svg version="1.1" xmlns="http://www.w3.org/2000/svg" width="38" height="38">
<path d="M0 0 C2.23367361 1.78693889 4.23872502 3.65687132 6.1875 5.75 C5.8575 6.74 5.5275 7.73 5.1875 8.75 C1.29516151 8.20939743 -0.74115102 7.12781856 -3.8125 4.75 C-5.6647367 3.74521963 -5.6647367 3.74521963 -7.8125 3.75 C-12.71659744 5.73629645 -15.86312577 8.48262933 -19.1875 12.5 C-19.86232422 13.25023437 -19.86232422 13.25023437 -20.55078125 14.015625 C-22.97937385 16.90926725 -23.80717174 18.702835 -24.234375 22.484375 C-24.09786192 25.87419575 -24.09786192 25.87419575 -21.6875 28.25 C-18.90945754 29.97007598 -18.90945754 29.97007598 -15.8125 29.8125 C-12.06871213 28.48657513 -10.4352227 26.7089692 -7.8125 23.75 C-6.389375 22.5125 -6.389375 22.5125 -4.9375 21.25 C-2.53504305 18.95532478 -2.53504305 18.95532478 -2.75 16.0625 C-4.03553042 13.26458084 -5.07873814 12.95948252 -7.8125 11.75 C-9.15477818 13.01138195 -10.48608677 14.28444559 -11.8125 15.5625 C-12.555 16.27019531 -13.2975 16.97789063 -14.0625 17.70703125 C-16.13777608 19.68139369 -16.13777608 19.68139369 -15.8125 22.75 C-15.12414062 21.90115234 -15.12414062 21.90115234 -14.421875 21.03515625 C-13.80828125 20.30167969 -13.1946875 19.56820313 -12.5625 18.8125 C-11.95921875 18.08160156 -11.3559375 17.35070312 -10.734375 16.59765625 C-8.70508866 14.64673666 -7.558093 14.13268221 -4.8125 13.75 C-4.0625 15.421875 -4.0625 15.421875 -3.8125 17.75 C-6.25903412 21.63152047 -9.3080645 24.8003419 -12.8125 27.75 C-16.73402175 28.57225456 -18.32971787 28.53772801 -21.8125 26.6875 C-23.54127137 23.33800547 -22.87872298 21.30407659 -21.8125 17.75 C-19.71722367 15.12953691 -17.30304046 12.98595188 -14.8125 10.75 C-14.173125 9.945625 -13.53375 9.14125 -12.875 8.3125 C-10.27773348 6.34487385 -8.08335623 6.06277185 -4.8515625 6.23828125 C-1.78591854 7.00762868 -0.06339198 8.57558739 2.15625 10.75390625 C3.78342273 13.90347166 3.58789663 16.26243311 3.1875 19.75 C1.39453125 22.69921875 1.39453125 22.69921875 -1 25.4375 C-1.77730469 26.34886719 -2.55460937 27.26023437 -3.35546875 28.19921875 C-7.51055067 32.51284115 -10.55800254 35.38363132 -16.7578125 35.83984375 C-20.39872682 35.68064027 -22.72995427 34.64695122 -25.8125 32.75 C-28.65702463 29.49431989 -29.70392393 26.51003246 -30.3125 22.25 C-29.03933234 13.33782638 -22.06466682 6.79175736 -15.8125 0.75 C-10.9820387 -2.34668728 -5.16176448 -2.29411755 0 0 Z " fill="#F72F7F" transform="translate(30.8125,1.25)"/>
<path d="M0 0 C2.23367361 1.78693889 4.23872502 3.65687132 6.1875 5.75 C5.8575 6.74 5.5275 7.73 5.1875 8.75 C1.29516151 8.20939743 -0.74115102 7.12781856 -3.8125 4.75 C-5.6647367 3.74521963 -5.6647367 3.74521963 -7.8125 3.75 C-12.67827966 5.72757246 -15.88351684 8.43971788 -19.1875 12.4375 C-19.63013184 12.96698242 -20.07276367 13.49646484 -20.52880859 14.04199219 C-22.98251706 17.15802242 -24.46619585 19.48975526 -24.4375 23.5 C-24.23125 24.5725 -24.025 25.645 -23.8125 26.75 C-24.4725 27.08 -25.1325 27.41 -25.8125 27.75 C-27.9375 26.8125 -27.9375 26.8125 -29.8125 25.75 C-30.42191345 18.28468529 -28.05651737 14.4376022 -23.4609375 8.93359375 C-16.694663 1.27912098 -10.58785355 -4.70571269 0 0 Z " fill="#F87637" transform="translate(30.8125,1.25)"/>
<path d="M0 0 C1.32 0.66 2.64 1.32 4 2 C1.53679222 7.2749827 -1.64573364 11.77168712 -6.875 14.5 C-10.8142623 15.13028197 -14.17529386 15.23555322 -18 14 C-21.1786241 11.4300486 -22.70728109 9.87815673 -24 6 C-18.48160535 5.62374582 -18.48160535 5.62374582 -16 7.5625 C-14.01295207 9.28573848 -14.01295207 9.28573848 -11.0625 9 C-7.26551621 7.76016856 -5.61855791 5.97241709 -3 3 C-2 2 -1 1 0 0 Z " fill="#F10BB7" transform="translate(26,22)"/>
<path d="M0 0 C2.23367361 1.78693889 4.23872502 3.65687132 6.1875 5.75 C5.8575 6.74 5.5275 7.73 5.1875 8.75 C1.29516151 8.20939743 -0.74115102 7.12781856 -3.8125 4.75 C-5.6647367 3.74521963 -5.6647367 3.74521963 -7.8125 3.75 C-10.89583333 5.08333333 -10.89583333 5.08333333 -13.8125 6.75 C-14.8025 7.08 -15.7925 7.41 -16.8125 7.75 C-17.125 4.9375 -17.125 4.9375 -16.8125 1.75 C-12.30716192 -2.61000459 -5.46725971 -2.42989321 0 0 Z " fill="#6C9EBB" transform="translate(30.8125,1.25)"/>
<path d="M0 0 C3.4475252 0.04969406 5.24024966 0.69172762 7.8125 3 C10.02395234 5.55585885 10.3332544 6.55787555 10.9375 10.0625 C10.23365523 13.86326176 9.31301895 15.09334457 6.3125 17.4375 C5.3225 16.7775 4.3325 16.1175 3.3125 15.4375 C3.6425 13.1275 3.9725 10.8175 4.3125 8.4375 C2.6625 7.4475 1.0125 6.4575 -0.6875 5.4375 C-1.6775 6.0975 -2.6675 6.7575 -3.6875 7.4375 C-4.06883299 5.4460944 -4.40075582 3.44470923 -4.6875 1.4375 C-3.6875 0.4375 -3.6875 0.4375 0 0 Z " fill="#7170DA" transform="translate(23.6875,7.5625)"/>
<path d="M0 0 C2 2 2 2 2.40234375 4.36328125 C1.85192056 7.97042354 0.36451417 8.92752914 -2.4375 11.1875 C-5.70544403 13.70187282 -5.70544403 13.70187282 -8 17 C-8.66 17 -9.32 17 -10 17 C-9.89834911 12.01910654 -9.17468314 9.76475912 -5.5625 6.25 C-4.94503906 5.69828125 -4.32757812 5.1465625 -3.69140625 4.578125 C-1.77448717 2.91084637 -1.77448717 2.91084637 0 0 Z " fill="#F44966" transform="translate(18,9)"/>
<path d="M0 0 C4.68200014 -0.31922728 6.34221559 0.25666169 10 3 C13.16732421 3.25086724 13.16732421 3.25086724 16 3 C11.8 7.8 11.8 7.8 8.5 8.625 C4.89913528 7.72478382 3.34630056 5.80252567 1 3 C0.67 2.01 0.34 1.02 0 0 Z " fill="#FD1896" transform="translate(2,28)"/>
<path d="M0 0 C-0.98451452 3.64270373 -1.62705413 4.77781948 -4.9375 6.75 C-6.9331833 7.56456461 -8.95509398 8.31836466 -11 9 C-11.3125 6.1875 -11.3125 6.1875 -11 3 C-7.49047762 -0.09663739 -4.5654558 -0.31852017 0 0 Z " fill="#A99874" transform="translate(25,0)"/>
<path d="M0 0 C0.33 0 0.66 0 1 0 C1.875 3.1875 1.875 3.1875 2 7 C0.21974097 9.21299892 -1.60637719 10.38796831 -4 12 C-4 11.34 -4 10.68 -4 10 C-4.66 10 -5.32 10 -6 10 C-5.49381745 5.61308455 -2.86917019 3.15608721 0 0 Z " fill="#DB7E50" transform="translate(13,4)"/>
<path d="M0 0 C2 2 2 2 2.3125 4.4375 C2 7 2 7 0.625 8.8125 C-1 10 -1 10 -3 10 C-3 9.34 -3 8.68 -3 8 C-3.66 8 -4.32 8 -5 8 C-3.62845496 5.04590299 -2.01136276 2.55991624 0 0 Z " fill="#C86380" transform="translate(18,9)"/>
<path d="M0 0 C2.125 0.375 2.125 0.375 4 1 C3.42655063 3.86724686 3.1385485 4.8614515 1 7 C-1.625 6.625 -1.625 6.625 -4 6 C-2.84826645 3.53199953 -1.95216435 1.95216435 0 0 Z " fill="#9B5EBA" transform="translate(23,15)"/>
<path d="M0 0 C1.32 0.66 2.64 1.32 4 2 C2.70700306 4.88437779 1.34058637 6.87219421 -1 9 C-1 8.34 -1 7.68 -1 7 C-1.99 6.67 -2.98 6.34 -4 6 C-2.84826645 3.53199953 -1.95216435 1.95216435 0 0 Z " fill="#CD24C3" transform="translate(26,22)"/>
<path d="M0 0 C1.134375 0.020625 2.26875 0.04125 3.4375 0.0625 C3.1075 1.7125 2.7775 3.3625 2.4375 5.0625 C1.81875 5.206875 1.2 5.35125 0.5625 5.5 C-1.59508322 5.99402225 -1.59508322 5.99402225 -3.5625 7.0625 C-3.94383299 5.0710944 -4.27575582 3.06970923 -4.5625 1.0625 C-3.5625 0.0625 -3.5625 0.0625 0 0 Z " fill="#8C80AB" transform="translate(23.5625,7.9375)"/>
<path d="M0 0 C1.32 0.66 2.64 1.32 4 2 C4 3.32 4 4.64 4 6 C1.625 5.6875 1.625 5.6875 -1 5 C-1.66 4.01 -2.32 3.02 -3 2 C-2.01 1.34 -1.02 0.68 0 0 Z " fill="#4E97E4" transform="translate(32,4)"/>
<path d="M0 0 C0.33 0 0.66 0 1 0 C1.33 2.64 1.66 5.28 2 8 C1.01 8.495 1.01 8.495 0 9 C-2.125 8.0625 -2.125 8.0625 -4 7 C-4 5.68 -4 4.36 -4 3 C-3.01 2.67 -2.02 2.34 -1 2 C-0.67 1.34 -0.34 0.68 0 0 Z " fill="#FC4E5B" transform="translate(5,20)"/>
<path d="M0 0 C0.99 0.33 1.98 0.66 3 1 C3.33 2.65 3.66 4.3 4 6 C3.01 6.66 2.02 7.32 1 8 C0.01 7.34 -0.98 6.68 -2 6 C-1.34 4.02 -0.68 2.04 0 0 Z " fill="#8D53D9" transform="translate(29,17)"/>
<path d="M0 0 C2.875 -0.1875 2.875 -0.1875 6 0 C6.66 0.99 7.32 1.98 8 3 C7 4 7 4 4.4375 4.0625 C3.2309375 4.0315625 3.2309375 4.0315625 2 4 C1.34 2.68 0.68 1.36 0 0 Z " fill="#FD2C80" transform="translate(2,28)"/>
<path d="M0 0 C1.32 0.33 2.64 0.66 4 1 C3.3125 2.9375 3.3125 2.9375 2 5 C-0.625 5.75 -0.625 5.75 -3 6 C-3 5.01 -3 4.02 -3 3 C-2.34 3 -1.68 3 -1 3 C-0.67 2.01 -0.34 1.02 0 0 Z " fill="#909E8F" transform="translate(21,0)"/>
<path d="M0 0 C2.475 0.99 2.475 0.99 5 2 C3.515 4.475 3.515 4.475 2 7 C0.68 5.68 -0.64 4.36 -2 3 C-1.34 2.01 -0.68 1.02 0 0 Z " fill="#D535A2" transform="translate(18,20)"/>
<path d="M0 0 C0.33 0.99 0.66 1.98 1 3 C0.01 4.485 0.01 4.485 -1 6 C-1.66 6 -2.32 6 -3 6 C-3.33 6.99 -3.66 7.98 -4 9 C-4.99 9 -5.98 9 -7 9 C-6 7 -6 7 -4.5 5.5625 C-2.74916008 3.9622647 -2.74916008 3.9622647 -2 1 C-1.34 0.67 -0.68 0.34 0 0 Z " fill="#F76945" transform="translate(8,14)"/>
<path d="M0 0 C1.1725131 0.95117134 2.33787015 1.91117009 3.5 2.875 C4.47453125 3.67550781 4.47453125 3.67550781 5.46875 4.4921875 C5.9740625 4.98976563 6.479375 5.48734375 7 6 C7 6.66 7 7.32 7 8 C3.64641875 6.88213958 1.68841859 5.25245881 -1 3 C-0.67 2.01 -0.34 1.02 0 0 Z " fill="#6482D8" transform="translate(27,8)"/>
<path d="M0 0 C0.99 0.99 1.98 1.98 3 3 C2.67 3.99 2.34 4.98 2 6 C0.35 6 -1.3 6 -3 6 C-2.01 4.02 -1.02 2.04 0 0 Z " fill="#ED2398" transform="translate(16,23)"/>
<path d="M0 0 C-4.30769231 3.93846154 -4.30769231 3.93846154 -7.8125 4.25 C-8.534375 4.1675 -9.25625 4.085 -10 4 C-4.4 -2.2 -4.4 -2.2 0 0 Z " fill="#FC0DA3" transform="translate(18,32)"/>
<path d="M0 0 C0.33 0 0.66 0 1 0 C1.33 2.31 1.66 4.62 2 7 C1.01 7 0.02 7 -1 7 C-1.625 4.625 -1.625 4.625 -2 2 C-1.34 1.34 -0.68 0.68 0 0 Z " fill="#C38B60" transform="translate(13,4)"/>
<path d="M0 0 C2 2 2 2 2.125 4.625 C2.08375 5.40875 2.0425 6.1925 2 7 C1.01 7.495 1.01 7.495 0 8 C-0.38063221 5.6739143 -0.71269945 3.33944736 -1 1 C-0.67 0.67 -0.34 0.34 0 0 Z " fill="#AE738F" transform="translate(18,9)"/>
<path d="M0 0 C1.32 0.66 2.64 1.32 4 2 C3.67 2.99 3.34 3.98 3 5 C2.01 5 1.02 5 0 5 C0 4.34 0 3.68 0 3 C-0.66 2.67 -1.32 2.34 -2 2 C-1.34 1.34 -0.68 0.68 0 0 Z " fill="#B237CD" transform="translate(26,22)"/>
<path d="M0 0 C1.65 0.33 3.3 0.66 5 1 C4.67 1.99 4.34 2.98 4 4 C2.35 3.67 0.7 3.34 -1 3 C-0.67 2.01 -0.34 1.02 0 0 Z " fill="#B749B0" transform="translate(20,18)"/>
<path d="M0 0 C0.99 0.33 1.98 0.66 3 1 C3.33 1.99 3.66 2.98 4 4 C2.02 4.99 2.02 4.99 0 6 C-0.38218767 4.34385343 -0.71395102 2.67542976 -1 1 C-0.67 0.67 -0.34 0.34 0 0 Z " fill="#E15273" transform="translate(12,16)"/>
</svg>
